<svg version="1.2" xmlns="http://www.w3.org/2000/svg" viewBox="0 0 512 512" width="512" height="512"><style>.a{fill:#7c3aed}</style><path fill-rule="evenodd" class="a" d="m479 456.6c0.2 3.1-0.2 6.2-1.2 9.2-1 2.9-2.6 5.6-4.7 7.9-2.1 2.3-4.7 4.2-7.5 5.4-2.9 1.3-6 1.9-9.1 1.9h-401c-3.1 0-6.2-0.6-9.1-1.9-2.8-1.2-5.4-3.1-7.5-5.4-2.1-2.3-3.7-5-4.7-7.9-1-3-1.4-6.1-1.2-9.2l3.6-43.4c0.5-6.1 1.9-12 3.9-17.8 2.1-5.8 4.9-11.2 8.4-16.2 3.5-5 7.6-9.6 12.3-13.5 4.6-4 9.8-7.3 15.3-9.9l40-18.8-21.6-44.6c-3-6-5.2-12.4-6.7-18.9-1.5-6.6-2.3-13.3-2.3-20 0-6.8 0.8-13.5 2.3-20 1.5-6.6 3.7-13 6.7-19l57.3-118.4c42-86.8 165.6-86.8 207.6 0l57.3 118.4c3 6 5.2 12.4 6.7 19 1.5 6.5 2.3 13.2 2.3 20 0 6.7-0.8 13.4-2.3 20-1.5 6.5-3.7 12.9-6.7 18.9l-21.6 44.6 40 18.8c5.5 2.6 10.7 5.9 15.3 9.9 4.7 3.9 8.8 8.5 12.3 13.5 3.5 5 6.3 10.4 8.4 16.2 2 5.8 3.3 11.7 3.9 17.8zm-115-253.1c0-3.8-0.8-7.6-2.2-11.1-1.5-3.5-3.6-6.6-6.3-9.3-2.6-2.7-5.8-4.8-9.3-6.3-3.5-1.4-7.2-2.2-11-2.2h-158.4c-3.8 0-7.5 0.8-11 2.2-3.5 1.5-6.7 3.6-9.4 6.3-2.6 2.7-4.8 5.8-6.2 9.3-1.5 3.5-2.2 7.3-2.2 11.1v56.6c0 13.4 2.5 26.6 7.3 39.1 4.8 12.4 11.9 23.8 20.9 33.7 9 9.9 19.7 18 31.7 23.9 12 5.9 24.9 9.6 38.2 10.8v-26.5c0-2.6 1-5.1 2.9-7 1.8-1.8 4.4-2.9 7-2.9 2.6 0 5.1 1.1 7 2.9 1.8 1.9 2.9 4.4 2.9 7v26.5c13.3-1.2 26.2-4.9 38.2-10.8 11.9-5.9 22.7-14 31.7-23.9 9-9.9 16.1-21.3 20.9-33.7 4.8-12.5 7.3-25.7 7.3-39.1z"/><path class="a" d="m321.8 276c-1.2-0.4-2.5-0.5-3.8-0.4-1.3 0.2-2.6 0.6-3.7 1.2-1.2 0.6-2.2 1.4-3 2.5-0.8 1-1.4 2.1-1.8 3.4-0.8 2.8-2.5 5.2-4.9 7-2.3 1.7-5.2 2.7-8.1 2.7-2.9 0-5.8-1-8.1-2.7-2.4-1.8-4.1-4.2-4.9-7-0.8-2.5-2.5-4.7-4.8-5.9-2.3-1.3-5-1.6-7.5-0.8-2.5 0.7-4.7 2.5-5.9 4.8-1.3 2.3-1.5 5-0.8 7.5 2.1 6.9 6.3 12.9 12.1 17.2 5.7 4.3 12.7 6.6 19.9 6.6 7.2 0 14.2-2.3 19.9-6.6 5.8-4.3 10-10.3 12.1-17.2 0.4-1.2 0.5-2.5 0.3-3.8-0.1-1.3-0.5-2.6-1.1-3.7-0.6-1.2-1.5-2.2-2.5-3-1-0.8-2.1-1.4-3.4-1.8z"/><path class="a" d="m240.8 276c-1.2-0.4-2.5-0.5-3.8-0.4-1.3 0.2-2.6 0.6-3.7 1.2-1.2 0.6-2.2 1.4-3 2.4-0.8 1.1-1.4 2.2-1.8 3.5-0.8 2.8-2.5 5.2-4.9 7-2.3 1.7-5.2 2.7-8.1 2.7-2.9 0-5.8-1-8.1-2.7-2.4-1.8-4.1-4.2-4.9-7-0.8-2.5-2.5-4.7-4.8-5.9-2.3-1.3-5-1.6-7.5-0.8-2.5 0.7-4.7 2.5-5.9 4.8-1.3 2.3-1.5 5-0.8 7.5 2.1 6.9 6.3 12.9 12.1 17.2 5.7 4.3 12.7 6.6 19.9 6.6 7.2 0 14.2-2.3 19.9-6.6 5.8-4.3 10-10.3 12.1-17.2 0.4-1.2 0.5-2.5 0.3-3.8-0.1-1.3-0.5-2.6-1.1-3.7-0.6-1.2-1.5-2.2-2.5-3-1-0.8-2.1-1.4-3.4-1.8z"/><path class="a" d="m319 227.4h-36c-2.6 0-5.2 1.1-7 2.9-1.9 1.9-2.9 4.4-2.9 7 0 2.7 1 5.2 2.9 7 1.8 1.9 4.4 2.9 7 2.9h36c2.6 0 5.2-1 7-2.9 1.9-1.8 2.9-4.3 2.9-7 0-2.6-1-5.1-2.9-7-1.8-1.8-4.4-2.9-7-2.9z"/><path class="a" d="m193 247.2h36c2.6 0 5.2-1 7-2.9 1.9-1.8 2.9-4.3 2.9-7 0-2.6-1-5.1-2.9-7-1.8-1.8-4.4-2.9-7-2.9h-36c-2.6 0-5.2 1.1-7 2.9-1.9 1.9-2.9 4.4-2.9 7 0 2.7 1 5.2 2.9 7 1.8 1.9 4.4 2.9 7 2.9z"/></svg>