<svg version="1.2" xmlns="http://www.w3.org/2000/svg" viewBox="0 0 20 20" width="20" height="20"><style>.a{fill:none}.b{fill:#7c3aed}</style><path class="a" d="m0 0h20v20h-20z"/><path fill-rule="evenodd" class="b" d="m17.3 4.9l-12.7 12.8c-0.5 0.5-1.2 0.4-1.6 0-0.5-0.5-0.4-1.2 0-1.6l1.7-1.7c-1.1-0.7-2.1-1.6-2.9-2.7-0.3-0.4-0.6-0.8-0.8-1.2 1.8-3.3 5.2-5.3 9-5.4q1.7 0 3.3 0.6l2.4-2.4c0.5-0.4 1.2-0.4 1.6 0 0.4 0.4 0.4 1.1 0 1.6zm-10.3 2.3c-1.9 0.6-3.5 1.8-4.7 3.5 0.8 1.2 1.9 2.2 3.1 2.9l1.3-1.3c-1.1-1.5-1-3.7 0.3-5.1zm4.9 0c-0.5-0.4-1.2-0.4-1.7 0-0.5 0.5-0.6 1.3-0.1 1.8zm7.2 3.3c-0.3 0.4-0.5 0.8-0.8 1.2-1.9 2.7-5 4.3-8.3 4.3-0.6 0-1.2-0.1-1.9 0l1-1h0.8c3.1 0 6-1.6 7.7-4.2-0.6-0.9-1.3-1.6-2.1-2.2l1-1c0.7 0.5 1.3 1.2 1.8 1.9 0.3 0.3 0.5 0.7 0.8 1zm-9.1 3.5l4-4c0 2.2-1.8 4-4 4z"/></svg>