<svg version="1.2" xmlns="http://www.w3.org/2000/svg" viewBox="0 0 24 24" width="24" height="24"><style>.a{fill:#7c3aed}.b{opacity:.5;fill:#7c3aed}</style><path class="a" d="m21 16.5c0 1.9-1.6 3.5-3.5 3.5-1.9 0-3.5-1.6-3.5-3.5 0-1.9 1.6-3.5 3.5-3.5 1.9 0 3.5 1.6 3.5 3.5z"/><path fill-rule="evenodd" class="a" d="m1.3 10c-0.1-0.4 0.3-0.8 0.7-0.8l20 0.1c0.4 0 0.8 0.3 0.8 0.7-0.1 0.4-0.4 0.8-0.8 0.8h-20c-0.4 0-0.8-0.4-0.8-0.8z"/><path class="b" d="m4.2 9.3l0.4-1.8c0.6-2.1 0.8-3.2 1.6-3.9 0.9-0.6 2-0.6 4.2-0.6h3.2c2.2 0 3.3 0 4.2 0.6 0.8 0.7 1 1.8 1.6 3.9l0.4 1.7z"/><path class="a" d="m10 16.5c0 1.9-1.6 3.5-3.5 3.5-1.9 0-3.5-1.6-3.5-3.5 0-1.9 1.6-3.5 3.5-3.5 1.9 0 3.5 1.6 3.5 3.5z"/><path class="b" d="m9.9 17.4q0.1-0.4 0.1-0.9 0-0.4-0.1-0.8l0.4-0.2c1.1-0.5 2.3-0.5 3.4 0l0.4 0.2q-0.1 0.4-0.1 0.8 0 0.5 0.1 0.9l-1.1-0.6c-0.6-0.3-1.4-0.3-2 0z"/></svg>