<svg version="1.2" xmlns="http://www.w3.org/2000/svg" viewBox="0 0 2000 750" width="2000" height="750"><style>.a{fill:#7c3aed}</style><path class="a" d="m1939.8 15h3.3l-3.3 9.6-22.5 46.8-16.1 30.6-90.2 180.4-37.1 75.7-30.6 61.2-16 30.6-35.5 70.8-14.5 25.8-21 12.9-27.3 16.1-33.9 21-43.5 25.7-24.1 14.5-45.1 27.4-104.7 62.8-3.2-1.6 17.7-33.9 17.7-37 12.9-27.3 25.8-51.6 12.8-27.4 16.1-30.6 19.4-40.2 33.9-67.7 17.7-37 20.9-41.9 17.7-37.1 19.4-37 27.3-54.8h-267.3l-6.5-3.2v-127.2l1.6-54.8h365.7l-11.4 24.1-77.3 154.7 14.6-9.6 25.7-16.1 43.5-25.9 35.4-20.9 32.2-19.3 41.9-24.1 46.7-27.4 25.8-14.6 27.4-16z"/><path class="a" d="m243.8 393.5l11.3 9.7 9.7 9.6v3.2l6.5 3.3 9.6 11.2 67.6 67.6 11.3 8.2 17.7 4.8 14.5-1.6 11.3-6.5 16.1-14.5 37-37h3.3l3.2-6.5h3.2v-3.2l12.9-11.3 32.2-32.2 3.2-4.8 6.5 3.2 11.2 12.9 29 29 11.3 12.9 127.3 127.2 1.6 3.3v151.4l-1.6 1.6h-125.7l-180.4-180.4-11.3-9.7-6.3 1.6-75.8 75.7h-3.2v3.2l-12.9 11.3-70.9 70.8-12.9 11.4-14.5 14.5h-127.2l-1.6-3.3v-146.5l11.3-12.9 141.7-141.8 1.7-3.2h3.1l3.2-6.4 8.2-6.5 8-8z"/><path class="a" d="m60.2 15h117.6l11.3 3.2 141.7 141.7 9.7 8.1v3.2l6.4 3.2 25.8 25.9 6.4 8h3.2l11.3-12.9 143.4-143.3h3.1l3.3-6.5 12.9-11.2 17.7-17.8 3.2-1.6h122.5l1.6 1.6v146.6l-136.9 136.9-19.4 17.7-17.7 17.7-9.7 11.3-11.2-9.7-27.4-27.4-19.3-17.7-77.4-77.2-6.3 1.5-69.4 69.3h-3.2l-3.2 6.4-16.1 14.5-20.9 21-4.9 6.5h-3.2v3.1h-3.2l-3.2 6.5-6.4 3.2-22.6-24.2-161.1-161-1.6-3.3v-128.8l1.6-12.9z"/><path class="a" d="m1008.9 375.8h117.6l1.6 1.6v352.7l-1.6 1.7h-188.5l-1.6-3.3v-351.1z"/><path class="a" d="m751.2 18.2h186.8v359.2l-1.6 1.6h-48.3l-136.9-1.6-1.7-1.6v-354.3z"/><path class="a" d="m1128.1 18.2h183.6l1.6 1.7v357.5l-127.2 1.6h-58l-1.6-1.6v-357.5z"/><path class="a" d="m1678.9 544.9h99.9l162.6 1.6v185.3l-1.6 1.6h-354.3l3.2-8.1 17.8-35.4 17.6-37.1 32.2-64.5 17.8-38.6z"/></svg>