<svg version="1.2" xmlns="http://www.w3.org/2000/svg" viewBox="0 0 2000 2000" width="2000" height="2000"><style>.a{fill:#7c3aed}</style><path class="a" d="m1783.2 24h8.8l-8.8 26.2-61.2 127-43.8 83.2-245.2 490.4-100.8 205.8-83.2 166.4-43.6 83.2-96.4 192.6-39.4 70-57 35-74.4 43.8-92 57-118.2 70-65.6 39.4-122.6 74.4-284.6 170.8-8.8-4.4 48.2-92 48.2-100.6 35-74.4 70-140.2 35-74.4 43.8-83.2 52.6-109.4 92-184 48.2-100.6 56.8-113.8 48.2-100.8 52.6-100.6 74.4-149h-726.8l-17.6-8.6v-346l4.4-148.8h994l-30.8 65.6-210.2 420.4 39.6-26.2 70-43.8 118.2-70.2 96.2-56.8 87.6-52.6 113.8-65.6 127-74.4 70.2-39.6 74.4-43.6z"/><path class="a" d="m1074 1464.4h271.4l442.2 4.4v503.6l-4.4 4.4h-963.2l8.8-22 48.2-96.2 48-100.8 87.6-175.2 48.2-105z"/></svg>