<svg version="1.2" xmlns="http://www.w3.org/2000/svg" viewBox="0 0 128 128" width="128" height="128"><style>.a{fill:#8b5738}.b{fill:#ffb17a}.c{fill:#cc8552}.d{opacity:.7;fill:#81d4fa}.e{opacity:.4;fill:#1d44b3}.f{fill:#7c3aed}.g{fill:#4c1d95}.h{fill:#fff}</style><path class="a" d="m23.4 116.3v-7.4c7.4-1.9 67.8 0 81.2 0v7.4c0 4.3-18.2 7.7-40.6 7.7-22.4 0-40.6-3.4-40.6-7.7z"/><path class="b" d="m64 116.2c-22.5 0-40.6-3.5-40.6-7.7 0-4.3 18.1-7.7 40.6-7.7 22.5 0 40.6 3.4 40.6 7.7 0 4.2-18.1 7.7-40.6 7.7z"/><path class="c" d="m64 116.2c-22.5 0-40.6-3.5-40.6-7.7 0-4.3 18.1-7.7 40.6-7.7 22.5 0 40.6 3.4 40.6 7.7 0 4.2-18.1 7.7-40.6 7.7z"/><path class="d" d="m70 65.5c-0.8-0.3-1.1-0.9-1.1-1.7 0-0.9 0.2-1.4 1-1.7 4.6-1.8 27.7-10.7 27.7-38.3l-0.1-4.9h-67l-0.1 5c0 26.8 23 36.3 27.6 38.1 0.8 0.3 1.3 0.9 1.3 1.8 0 0.9-0.4 1.4-1.2 1.6-4.6 1.9-27.7 10.7-27.7 38.4q0 1.1 0.4 2.2 0.4 1 1.1 1.9 0.8 0.9 1.7 1.5 1 0.6 2.1 0.9c5 1.2 14.4 2.5 30.5 2.5 13.9 0 21.7-1 26.1-2 3-0.7 5.2-3.4 5.3-6.6v-0.6c0-26.8-23-36.3-27.6-38.1z"/><path class="e" d="m97.5 18.9h-67l-0.1 4.5c0 0 7.2 3.7 33.6 3.7 26.4 0 33.6-3.7 33.6-3.7z"/><path class="a" d="m23.4 17.9v-7.8c7.1-1 70.9 0 81.2 0v7.8c0 3.4-18.2 6.1-40.6 6.1-22.4 0-40.6-2.7-40.6-6.1z"/><path class="c" d="m64 16.2c-22.5 0-40.6-2.8-40.6-6.1 0-3.4 18.1-6.1 40.6-6.1 22.5 0 40.6 2.7 40.6 6.1 0 3.3-18.1 6.1-40.6 6.1z"/><path class="f" d="m90.6 108.6c0.9-0.3 1.4-1.3 1-2.2-3.2-5.9-16.6-6.1-21.6-17.3-3.4-7.4-3.6-17.8-3.7-22.2-0.2-6 2.8-7.3 2.8-7.3 14.2-5.7 24.6-18.8 25.2-30.6 0.1-1.2-22.2 9.2-29.8 10.7-14.2 2.7-28.3-0.9-28.3-0.4 5.2 11.5 15.8 17.5 22.8 20.3 1.7 0.7 4.5 3.3 4.4 11.2-0.1 5.6-0.8 20.4-10.4 26.7-3.7 2.3-11.7 5.8-13.2 9.6-0.4 0.8 0.1 1.7 1 2 2.7 0.7 11.2 1.9 24.2 1.9 10.3 0 20.5-0.9 25.6-2.4z"/><path class="g" d="m42.4 43.3c5.3 2.8 17.1 6.7 22.9 4.7 5.8-2 28.2-16 29-19 0.9-3.7-26 5.7-35.5 7.9-6.4 1.5-18.7 0.7-21.5 1.3-2.7 0.6 0.1 2.5 5.1 5.1z"/><g style="opacity:.6"><path class="h" d="m45.8 37.7c1.3 2.9 3.6 9.6 0.6 10.7-3 1.2-7.4-3.1-9.5-7.4-2.1-4.3-1.9-9.9 1.2-10 3.2-0.1 6 2.8 7.7 6.7z"/></g><g style="opacity:.6"><path class="h" d="m42.9 80.6c-3.1 3.7-5.5 8.6-4.6 13.3 1 5 5.6 3.7 7.2 2.4 5.2-4.1 3.8-9.2 7.8-15.1 0.7-1 3.5-4.1 3.1-6.1-0.3-1.1-3-1.7-7.9 0.7-2.2 1.1-4 2.9-5.6 4.8z"/></g></svg>